<svg width="32" height="32" viewBox="0 0 32 32" fill="none" xmlns="http://www.w3.org/2000/svg">
<g clip-path="url(#clip0_11345_1559)">
<path fill-rule="evenodd" clip-rule="evenodd" d="M11.2929 6.29289C11.6834 5.90237 12.3166 5.90237 12.7071 6.29289C13.0976 6.68342 13.0976 7.31658 12.7071 7.70711L5.41421 15H29C29.5523 15 30 15.4477 30 16C30 16.5523 29.5523 17 29 17H5.41421L12.7071 24.2929C13.0976 24.6834 13.0976 25.3166 12.7071 25.7071C12.3166 26.0976 11.6834 26.0976 11.2929 25.7071L2.29289 16.7071C1.90237 16.3166 1.90237 15.6834 2.29289 15.2929L11.2929 6.29289Z" fill="#3D424D"/>
</g>
<defs>
<clipPath id="clip0_11345_1559">
<path d="M0 4C0 1.79086 1.79086 0 4 0H28C30.2091 0 32 1.79086 32 4V28C32 30.2091 30.2091 32 28 32H4C1.79086 32 0 30.2091 0 28V4Z" fill="white"/>
</clipPath>
</defs>
</svg>
